<svg id="Layer_1" data-name="Layer 1" xmlns="http://www.w3.org/2000/svg" viewBox="0 0 360.22 355.25"><defs><style>.cls-1{fill:#49e287;}</style></defs><path class="cls-1" d="M274.43,35.65a14.54,14.54,0,1,0-16.11,24.21,141.21,141.21,0,0,1,63.14,117.76c0,61.56-39.56,114-94.58,133.37a47.27,47.27,0,0,0-4-32.92l59.29-59.3A57.87,57.87,0,0,0,202.35,135a47.67,47.67,0,0,0-22.24-5.5,48.15,48.15,0,0,0-48.1,48.1,47.67,47.67,0,0,0,5.36,22A28.82,28.82,0,0,1,98.6,157l59.18-59.18A48.09,48.09,0,1,0,180.11,7.19c-94,0-170.44,76.45-170.44,170.43a170.23,170.23,0,0,0,76.12,142,14.54,14.54,0,1,0,16.11-24.21A141.2,141.2,0,0,1,38.76,177.62c0-61.55,39.56-114,94.57-133.36a47.38,47.38,0,0,0,4,32.92L78,136.48a57.87,57.87,0,0,0,79.84,83.75,47.64,47.64,0,0,0,22.24,5.5,48.16,48.16,0,0,0,48.1-48.11,47.66,47.66,0,0,0-5.37-22,28.82,28.82,0,0,1,38.78,42.56l-59.19,59.18a48.09,48.09,0,1,0-22.32,90.67c94,0,170.43-76.46,170.43-170.44A170.22,170.22,0,0,0,274.43,35.65ZM199.12,55.29a19,19,0,1,1-19-19A19,19,0,0,1,199.12,55.29Zm-19,141.35a19,19,0,1,1,19-19A19,19,0,0,1,180.11,196.64Zm0,84.3a19,19,0,1,1-19,19A19,19,0,0,1,180.11,280.94Z"/></svg>