<svg id="Layer_1" data-name="Layer 1" xmlns="http://www.w3.org/2000/svg" viewBox="0 0 500 103.25"><path d="M79.63,11.45a4.11,4.11,0,0,0-4.56,6.85,40,40,0,0,1-8.89,71.06,13.33,13.33,0,0,0,.37-3.12,13.57,13.57,0,0,0-1.5-6.19L81.83,63.27a16.38,16.38,0,0,0-22.59-23.7A13.59,13.59,0,0,0,40.85,57.84a8.15,8.15,0,0,1-11-12L46.63,29.05a13.44,13.44,0,0,0,6.31,1.57,13.61,13.61,0,0,0,0-27.22A48.23,48.23,0,0,0,26.25,91.8,4.11,4.11,0,1,0,30.81,85a40,40,0,0,1,8.9-71.06,13.29,13.29,0,0,0,1.13,9.31L24.06,40a16.38,16.38,0,0,0,.08,23.25,16.38,16.38,0,0,0,22.51.45,13.47,13.47,0,0,0,6.29,1.56A13.6,13.6,0,0,0,65,45.41,8.15,8.15,0,0,1,78.4,51.66,8.27,8.27,0,0,1,76,57.45L59.26,74.2a13.48,13.48,0,0,0-6.32-1.57,13.61,13.61,0,1,0,0,27.22,48.23,48.23,0,0,0,26.69-88.4ZM58.32,17a5.38,5.38,0,1,1-5.38-5.38A5.38,5.38,0,0,1,58.32,17ZM52.94,57a5.39,5.39,0,1,1,5.38-5.39A5.4,5.4,0,0,1,52.94,57Zm0,23.85a5.38,5.38,0,1,1-5.38,5.38A5.38,5.38,0,0,1,52.94,80.86Z"/><path d="M137.42,78.56a19.61,19.61,0,0,1-8.36-6,14,14,0,0,1-3-8.11,1.58,1.58,0,0,1,.53-1.21,1.77,1.77,0,0,1,1.26-.49h10.78a3.48,3.48,0,0,1,1.59.32,5.32,5.32,0,0,1,1.33,1.14,8.19,8.19,0,0,0,3.29,3.2,12.1,12.1,0,0,0,6,1.26,13.67,13.67,0,0,0,6.73-1.34,4.1,4.1,0,0,0,2.36-3.69,3.6,3.6,0,0,0-1.22-2.8,10.83,10.83,0,0,0-3.89-1.95c-1.79-.56-4.36-1.2-7.71-1.9q-9.81-1.95-14.68-5.92T127.52,39.7a15,15,0,0,1,2.8-9,18.26,18.26,0,0,1,8-6.12,30.35,30.35,0,0,1,12-2.2A28.65,28.65,0,0,1,162.6,24.9a21.14,21.14,0,0,1,8,6.17,13,13,0,0,1,3,7.25,1.8,1.8,0,0,1-.48,1.26,1.6,1.6,0,0,1-1.22.53H160.53a3.13,3.13,0,0,1-2.75-1.46,5,5,0,0,0-2.52-2.88,9.83,9.83,0,0,0-5-1.18A9.62,9.62,0,0,0,145,35.81a4,4,0,0,0-1.86,3.57,4.08,4.08,0,0,0,2.43,3.69q2.43,1.34,9.08,2.72a52.35,52.35,0,0,1,12.13,3.44,15.29,15.29,0,0,1,6.65,5.36,14.91,14.91,0,0,1,2.15,8.31,15.08,15.08,0,0,1-3.16,9.57,19.74,19.74,0,0,1-8.76,6.21,35.67,35.67,0,0,1-12.82,2.15A35.21,35.21,0,0,1,137.42,78.56Z"/><path d="M182.31,79.41a2,2,0,0,1-.6-1.42V25.27a1.94,1.94,0,0,1,.6-1.47,2.06,2.06,0,0,1,1.42-.56h11.6a1.94,1.94,0,0,1,2,2V78a2,2,0,0,1-.57,1.42,1.92,1.92,0,0,1-1.46.61h-11.6A2,2,0,0,1,182.31,79.41Z"/><path d="M207.38,79.41a1.94,1.94,0,0,1-.61-1.42V25.34a2.09,2.09,0,0,1,.57-1.49,1.87,1.87,0,0,1,1.46-.61h21.33q12,0,18.66,5.71t7,16.43q.08,2.35.08,6.25c0,2.59,0,4.65-.08,6.16Q255,80,230.53,80H208.8A2,2,0,0,1,207.38,79.41Zm22.75-11.56q5.12,0,7.54-2.44t2.6-7.78q.16-2.35.16-6.09t-.16-6q-.17-5.19-2.8-7.66t-7.75-2.48H222V67.85Z"/><path d="M264.07,79.41a2,2,0,0,1-.6-1.42V25.34a2.12,2.12,0,0,1,.56-1.49,1.9,1.9,0,0,1,1.46-.61h38.29a2,2,0,0,1,1.5.61,2,2,0,0,1,.61,1.49v8a1.91,1.91,0,0,1-.61,1.47,2.16,2.16,0,0,1-1.5.56H278.15V45.7H302a2.07,2.07,0,0,1,2.11,2.11V55.2A2.05,2.05,0,0,1,302,57.3H278.15V67.85h26.28A2.08,2.08,0,0,1,306.54,70v8a1.94,1.94,0,0,1-.61,1.46,2.13,2.13,0,0,1-1.5.57H265.49A2,2,0,0,1,264.07,79.41Z"/><path d="M314.53,79.41a1.94,1.94,0,0,1-.61-1.42V25.34a2.09,2.09,0,0,1,.57-1.49,1.87,1.87,0,0,1,1.46-.61h10.87a1.9,1.9,0,0,1,1.46.61,2.12,2.12,0,0,1,.56,1.49V43L343.2,24.86a3.3,3.3,0,0,1,3.16-1.62h12.41a1.62,1.62,0,0,1,1.18.52,1.67,1.67,0,0,1,.53,1.18,1.29,1.29,0,0,1-.33,1l-18.9,24.5L361.7,77.34a1.35,1.35,0,0,1,.32,1,1.63,1.63,0,0,1-.53,1.18,1.72,1.72,0,0,1-1.26.53H347.5a3.81,3.81,0,0,1-2.11-.53,3.31,3.31,0,0,1-1.13-1.1L328.84,58.6V78a2.06,2.06,0,0,1-.56,1.42,1.94,1.94,0,0,1-1.46.61H316A2,2,0,0,1,314.53,79.41Z"/><path d="M367.09,79.41a1.94,1.94,0,0,1-.61-1.42V25.27a1.91,1.91,0,0,1,.61-1.47,2,2,0,0,1,1.42-.56h11.6a1.92,1.92,0,0,1,2,2V78a2.06,2.06,0,0,1-.56,1.42,1.94,1.94,0,0,1-1.46.61h-11.6A2,2,0,0,1,367.09,79.41Z"/><path d="M396.85,75.23q-6.6-5.6-7-16.38-.07-2.19-.08-7.14c0-3.35,0-5.79.08-7.3q.41-10.54,7.1-16.26t18.13-5.73A33.67,33.67,0,0,1,428,24.78a20.92,20.92,0,0,1,9.05,6.81,17.92,17.92,0,0,1,3.48,10.55,1.57,1.57,0,0,1-.52,1.21,1.77,1.77,0,0,1-1.26.49H427.23a2.53,2.53,0,0,1-1.66-.45,3.69,3.69,0,0,1-.93-1.66q-1.14-4-3.45-5.56a10.68,10.68,0,0,0-6.12-1.58q-9.18,0-9.5,10.22c-.05,1.46-.07,3.71-.07,6.73s0,5.33.07,6.9q.33,10.22,9.5,10.22A10.7,10.7,0,0,0,421.19,67a9.32,9.32,0,0,0,3.45-5.52,3,3,0,0,1,.89-1.66,2.72,2.72,0,0,1,1.7-.45h11.52a1.77,1.77,0,0,1,1.26.49,1.58,1.58,0,0,1,.52,1.22,17.89,17.89,0,0,1-3.48,10.54A20.87,20.87,0,0,1,428,78.48a33.86,33.86,0,0,1-12.93,2.35Q403.46,80.83,396.85,75.23Z"/><path d="M447.79,79.41a2,2,0,0,1-.61-1.42V25.34a2.09,2.09,0,0,1,.57-1.49,1.9,1.9,0,0,1,1.46-.61h10.87a1.89,1.89,0,0,1,1.46.61,2.09,2.09,0,0,1,.57,1.49V43l14.36-18.17a3.29,3.29,0,0,1,3.16-1.62H492a1.78,1.78,0,0,1,1.7,1.7,1.33,1.33,0,0,1-.32,1l-18.9,24.5L495,77.34a1.35,1.35,0,0,1,.32,1,1.62,1.62,0,0,1-.52,1.18,1.72,1.72,0,0,1-1.26.53H480.77a3.87,3.87,0,0,1-2.12-.53,3.5,3.5,0,0,1-1.13-1.1L462.11,58.6V78a2,2,0,0,1-.57,1.42,1.92,1.92,0,0,1-1.46.61H449.21A2,2,0,0,1,447.79,79.41Z"/></svg>