<svg id="Layer_1" data-name="Layer 1" xmlns="http://www.w3.org/2000/svg" viewBox="0 0 500 355.25"><defs><style>.cls-1{fill:#fff;}</style></defs><path class="cls-1" d="M303.82,23a8.3,8.3,0,1,0-9.2,13.81,80.64,80.64,0,0,1-17.93,143.28,27.7,27.7,0,0,0,.75-6.29,27.33,27.33,0,0,0-3-12.49l33.83-33.83a33,33,0,0,0-45.55-47.79,27.4,27.4,0,0,0-37.07,36.85A16.44,16.44,0,0,1,203.5,92.25l33.76-33.77A27.44,27.44,0,1,0,250,6.75,97.25,97.25,0,0,0,196.19,185a8.32,8.32,0,0,0,11.5-2.31,8.31,8.31,0,0,0-2.31-11.51A80.64,80.64,0,0,1,223.31,27.9a27.09,27.09,0,0,0,2.28,18.78L191.76,80.52a33,33,0,0,0,45.55,47.78,27.4,27.4,0,0,0,37.07-36.85,16.44,16.44,0,0,1,22.12,24.29L262.74,149.5A27.44,27.44,0,1,0,250,201.23,97.25,97.25,0,0,0,303.82,23Zm-43,11.21A10.85,10.85,0,1,1,250,23.34,10.86,10.86,0,0,1,260.85,34.2ZM250,114.84A10.85,10.85,0,1,1,260.85,104,10.87,10.87,0,0,1,250,114.84Zm0,48.1a10.85,10.85,0,1,1-10.85,10.85A10.87,10.87,0,0,1,250,162.94Z"/><path class="cls-1" d="M21.41,345.51a25.81,25.81,0,0,1-11-7.92,18.45,18.45,0,0,1-4-10.71,2.07,2.07,0,0,1,.7-1.6,2.33,2.33,0,0,1,1.65-.64H23a4.34,4.34,0,0,1,2.08.43,6.71,6.71,0,0,1,1.77,1.49,10.73,10.73,0,0,0,4.34,4.23,15.94,15.94,0,0,0,7.86,1.66q5.77,0,8.88-1.77a5.39,5.39,0,0,0,3.11-4.86,4.74,4.74,0,0,0-1.61-3.7,14.27,14.27,0,0,0-5.14-2.57q-3.53-1.12-10.16-2.51-13-2.58-19.37-7.81t-6.42-15a19.89,19.89,0,0,1,3.69-11.82,24,24,0,0,1,10.49-8.08,40,40,0,0,1,15.78-2.89,37.92,37.92,0,0,1,16.32,3.26,28.06,28.06,0,0,1,10.6,8.14,17.21,17.21,0,0,1,3.9,9.57,2.33,2.33,0,0,1-.64,1.66,2.08,2.08,0,0,1-1.61.7h-15a4.12,4.12,0,0,1-3.64-1.93,6.65,6.65,0,0,0-3.31-3.8,13.13,13.13,0,0,0-6.64-1.55,12.67,12.67,0,0,0-6.95,1.61,5.26,5.26,0,0,0-2.47,4.71,5.37,5.37,0,0,0,3.21,4.86q3.21,1.77,12,3.59a68.28,68.28,0,0,1,16,4.55,20.24,20.24,0,0,1,8.78,7.06,21.86,21.86,0,0,1-1.34,23.6A26.16,26.16,0,0,1,56,345.67a47,47,0,0,1-16.91,2.83A46.54,46.54,0,0,1,21.41,345.51Z"/><path class="cls-1" d="M80.65,346.63a2.56,2.56,0,0,1-.81-1.87V275.2a2.51,2.51,0,0,1,.81-1.93,2.65,2.65,0,0,1,1.87-.75h15.3a2.57,2.57,0,0,1,2.68,2.68v69.56a2.66,2.66,0,0,1-.75,1.87,2.5,2.5,0,0,1-1.93.8H82.52A2.54,2.54,0,0,1,80.65,346.63Z"/><path class="cls-1" d="M113.71,346.63a2.59,2.59,0,0,1-.8-1.87V275.3a2.81,2.81,0,0,1,.75-2,2.53,2.53,0,0,1,1.93-.8h28.14q15.84,0,24.62,7.54t9.2,21.67q.1,3.11.11,8.25t-.11,8.13q-1.06,29.33-33.28,29.32H115.59A2.56,2.56,0,0,1,113.71,346.63Zm30-15.25q6.75,0,10-3.21t3.43-10.28c.14-2.06.21-4.74.21-8s-.07-5.92-.21-7.92q-.23-6.85-3.69-10.11t-10.22-3.27H133v42.81Z"/><path class="cls-1" d="M188.52,346.63a2.55,2.55,0,0,1-.8-1.87V275.3a2.84,2.84,0,0,1,.74-2,2.55,2.55,0,0,1,1.93-.8H240.9a2.75,2.75,0,0,1,2.79,2.78v10.59a2.51,2.51,0,0,1-.81,1.93,2.77,2.77,0,0,1-2,.75H207.09v13.59h31.46a2.73,2.73,0,0,1,2.78,2.79v9.73a2.75,2.75,0,0,1-2.78,2.79H207.09v13.91h34.67a2.73,2.73,0,0,1,2.78,2.78v10.6a2.53,2.53,0,0,1-.8,1.92,2.81,2.81,0,0,1-2,.75H190.39A2.55,2.55,0,0,1,188.52,346.63Z"/><path class="cls-1" d="M255.08,346.63a2.59,2.59,0,0,1-.8-1.87V275.3a2.81,2.81,0,0,1,.75-2,2.53,2.53,0,0,1,1.93-.8H271.3a2.53,2.53,0,0,1,1.92.8,2.81,2.81,0,0,1,.75,2v23.33l18.94-24a4.35,4.35,0,0,1,4.17-2.14h16.38a2.39,2.39,0,0,1,2.25,2.25,1.75,1.75,0,0,1-.43,1.28l-24.94,32.32,27,35.53a1.76,1.76,0,0,1,.42,1.28,2.17,2.17,0,0,1-.69,1.56,2.29,2.29,0,0,1-1.66.69h-16.8a5.08,5.08,0,0,1-2.79-.69,4.5,4.5,0,0,1-1.49-1.45L274,319.18v25.58a2.66,2.66,0,0,1-.75,1.87,2.49,2.49,0,0,1-1.92.8H257A2.56,2.56,0,0,1,255.08,346.63Z"/><path class="cls-1" d="M324.43,346.63a2.59,2.59,0,0,1-.8-1.87V275.2a2.53,2.53,0,0,1,.8-1.93,2.67,2.67,0,0,1,1.88-.75h15.3a2.57,2.57,0,0,1,2.67,2.68v69.56a2.66,2.66,0,0,1-.75,1.87,2.48,2.48,0,0,1-1.92.8h-15.3A2.56,2.56,0,0,1,324.43,346.63Z"/><path class="cls-1" d="M363.7,341.12q-8.71-7.39-9.25-21.62c-.07-1.93-.11-5.06-.11-9.42s0-7.63.11-9.63q.54-13.9,9.36-21.45t23.92-7.55a44.51,44.51,0,0,1,17.07,3.1,27.57,27.57,0,0,1,11.93,9,23.69,23.69,0,0,1,4.6,13.91,2.1,2.1,0,0,1-.69,1.61,2.37,2.37,0,0,1-1.66.64h-15.2a3.31,3.31,0,0,1-2.19-.59,5,5,0,0,1-1.23-2.19c-1-3.49-2.52-5.94-4.55-7.33a14.05,14.05,0,0,0-8.08-2.09q-12.09,0-12.52,13.49-.1,2.88-.11,8.88t.11,9.1q.44,13.48,12.52,13.48a14.08,14.08,0,0,0,8.08-2.14c2.1-1.43,3.62-3.85,4.55-7.28a4,4,0,0,1,1.18-2.19,3.61,3.61,0,0,1,2.24-.59H419a2.37,2.37,0,0,1,1.66.64,2.1,2.1,0,0,1,.69,1.61,23.66,23.66,0,0,1-4.6,13.91,27.57,27.57,0,0,1-11.93,9,44.51,44.51,0,0,1-17.07,3.1Q372.43,348.5,363.7,341.12Z"/><path class="cls-1" d="M430.91,346.63a2.55,2.55,0,0,1-.8-1.87V275.3a2.81,2.81,0,0,1,.75-2,2.53,2.53,0,0,1,1.92-.8h14.34a2.53,2.53,0,0,1,1.93.8,2.81,2.81,0,0,1,.75,2v23.33l18.94-24a4.35,4.35,0,0,1,4.17-2.14h16.38a2.39,2.39,0,0,1,2.25,2.25,1.75,1.75,0,0,1-.43,1.28l-24.94,32.32,27,35.53a1.77,1.77,0,0,1,.43,1.28,2.17,2.17,0,0,1-.69,1.56,2.3,2.3,0,0,1-1.67.69h-16.8a5,5,0,0,1-2.78-.69,4.64,4.64,0,0,1-1.5-1.45L449.8,319.18v25.58a2.66,2.66,0,0,1-.75,1.87,2.5,2.5,0,0,1-1.93.8H432.78A2.55,2.55,0,0,1,430.91,346.63Z"/></svg>