<svg id="Layer_1" data-name="Layer 1" xmlns="http://www.w3.org/2000/svg" viewBox="0 0 500 87.88"><defs><style>.cls-1{fill:#1d2b72;}</style></defs><path class="cls-1" d="M19.8,79.72a26,26,0,0,1-11.1-8A18.58,18.58,0,0,1,4.72,61a2.1,2.1,0,0,1,.7-1.62,2.36,2.36,0,0,1,1.67-.64H21.42a4.43,4.43,0,0,1,2.1.43,7,7,0,0,1,1.78,1.5,10.75,10.75,0,0,0,4.37,4.26,16.13,16.13,0,0,0,7.92,1.67q5.82,0,8.94-1.78a5.44,5.44,0,0,0,3.12-4.9A4.77,4.77,0,0,0,48,56.17a14.43,14.43,0,0,0-5.17-2.59q-3.57-1.12-10.24-2.53-13.05-2.58-19.51-7.86T6.66,28.1a20,20,0,0,1,3.71-11.91A24.16,24.16,0,0,1,20.93,8.05a40.42,40.42,0,0,1,15.9-2.91A38.18,38.18,0,0,1,53.27,8.43a28.16,28.16,0,0,1,10.67,8.19,17.46,17.46,0,0,1,3.93,9.64,2.37,2.37,0,0,1-.65,1.67,2.1,2.1,0,0,1-1.61.71H50.52a4.17,4.17,0,0,1-3.67-1.94,6.63,6.63,0,0,0-3.34-3.83,13.13,13.13,0,0,0-6.68-1.56,12.75,12.75,0,0,0-7,1.61,5.3,5.3,0,0,0-2.48,4.75c0,2.08,1.07,3.71,3.23,4.9S36.76,35,42.65,36.18a69,69,0,0,1,16.11,4.58,20.34,20.34,0,0,1,8.84,7.11,19.85,19.85,0,0,1,2.85,11.05,20.09,20.09,0,0,1-4.2,12.72,26.25,26.25,0,0,1-11.64,8.24,47.34,47.34,0,0,1-17,2.85Q27.14,82.73,19.8,79.72Z"/><path class="cls-1" d="M79.45,80.85a2.62,2.62,0,0,1-.8-1.89v-70A2.58,2.58,0,0,1,79.45,7a2.69,2.69,0,0,1,1.89-.75H96.75A2.63,2.63,0,0,1,98.69,7a2.66,2.66,0,0,1,.76,2V79a2.7,2.7,0,0,1-.76,1.89,2.53,2.53,0,0,1-1.94.81H81.34A2.59,2.59,0,0,1,79.45,80.85Z"/><path class="cls-1" d="M112.75,80.85A2.62,2.62,0,0,1,112,79V9a2.81,2.81,0,0,1,.75-2,2.53,2.53,0,0,1,1.94-.81H143q16,0,24.79,7.6T177,35.64q.11,3.12.11,8.3T177,52.13Q176,81.65,143.52,81.66H114.64A2.59,2.59,0,0,1,112.75,80.85ZM143,65.49q6.79,0,10-3.23c2.15-2.16,3.3-5.6,3.44-10.35q.23-3.12.22-8.08t-.22-8q-.21-6.9-3.71-10.19t-10.29-3.29H132.21V65.49Z"/><path class="cls-1" d="M188.09,80.85a2.59,2.59,0,0,1-.81-1.89V9A2.81,2.81,0,0,1,188,7,2.53,2.53,0,0,1,190,6.22h50.87a2.77,2.77,0,0,1,2.8,2.8V19.69a2.53,2.53,0,0,1-.81,1.94,2.81,2.81,0,0,1-2,.75H206.78V36.07h31.69a2.77,2.77,0,0,1,2.8,2.81v9.8a2.77,2.77,0,0,1-2.8,2.8H206.78v14H241.7a2.75,2.75,0,0,1,2.8,2.8V79a2.59,2.59,0,0,1-.8,2,2.84,2.84,0,0,1-2,.75H190A2.57,2.57,0,0,1,188.09,80.85Z"/><path class="cls-1" d="M255.12,80.85a2.59,2.59,0,0,1-.81-1.89V9a2.81,2.81,0,0,1,.75-2A2.54,2.54,0,0,1,257,6.22h14.45a2.54,2.54,0,0,1,1.94.81,2.81,2.81,0,0,1,.75,2v23.5L293.21,8.38a4.4,4.4,0,0,1,4.21-2.16h16.49a2.16,2.16,0,0,1,1.56.7,2.16,2.16,0,0,1,.7,1.56,1.8,1.8,0,0,1-.43,1.3L290.63,42.32,317.79,78.1a1.75,1.75,0,0,1,.43,1.29,2.2,2.2,0,0,1-.7,1.57,2.32,2.32,0,0,1-1.67.7H298.93a5.12,5.12,0,0,1-2.8-.7,4.41,4.41,0,0,1-1.51-1.46L274.14,53.21V79a2.69,2.69,0,0,1-.75,1.89,2.54,2.54,0,0,1-1.94.81H257A2.58,2.58,0,0,1,255.12,80.85Z"/><path class="cls-1" d="M325,80.85a2.59,2.59,0,0,1-.81-1.89v-70A2.55,2.55,0,0,1,325,7a2.67,2.67,0,0,1,1.88-.75h15.41a2.63,2.63,0,0,1,1.94.75,2.66,2.66,0,0,1,.76,2V79a2.7,2.7,0,0,1-.76,1.89,2.53,2.53,0,0,1-1.94.81H326.84A2.57,2.57,0,0,1,325,80.85Z"/><path class="cls-1" d="M364.5,75.3q-8.78-7.44-9.32-21.77-.1-2.91-.11-9.48c0-4.45,0-7.69.11-9.7q.54-14,9.43-21.61t24.09-7.6a44.68,44.68,0,0,1,17.19,3.13,27.75,27.75,0,0,1,12,9.05,23.9,23.9,0,0,1,4.63,14,2.1,2.1,0,0,1-.7,1.62,2.38,2.38,0,0,1-1.67.64h-15.3a3.34,3.34,0,0,1-2.21-.59,4.89,4.89,0,0,1-1.24-2.21q-1.51-5.28-4.58-7.38a14.18,14.18,0,0,0-8.14-2.1q-12.18,0-12.61,13.58-.1,2.91-.1,8.94t.1,9.16q.44,13.59,12.61,13.58a14.28,14.28,0,0,0,8.14-2.15c2.12-1.44,3.64-3.88,4.58-7.33a4,4,0,0,1,1.19-2.21,3.57,3.57,0,0,1,2.26-.59h15.3a2.38,2.38,0,0,1,1.67.64,2.1,2.1,0,0,1,.7,1.62,23.9,23.9,0,0,1-4.63,14,27.75,27.75,0,0,1-12,9,44.87,44.87,0,0,1-17.19,3.12Q373.3,82.73,364.5,75.3Z"/><path class="cls-1" d="M432.18,80.85a2.58,2.58,0,0,1-.8-1.89V9a2.81,2.81,0,0,1,.75-2,2.53,2.53,0,0,1,1.94-.81h14.44a2.53,2.53,0,0,1,1.94.81,2.82,2.82,0,0,1,.76,2v23.5L470.28,8.38a4.37,4.37,0,0,1,4.2-2.16H491a2.13,2.13,0,0,1,1.56.7,2.17,2.17,0,0,1,.71,1.56,1.8,1.8,0,0,1-.43,1.3L467.69,42.32,494.85,78.1a1.75,1.75,0,0,1,.43,1.29,2.19,2.19,0,0,1-.69,1.57,2.33,2.33,0,0,1-1.68.7H476a5.12,5.12,0,0,1-2.8-.7,4.51,4.51,0,0,1-1.51-1.46L451.21,53.21V79a2.7,2.7,0,0,1-.76,1.89,2.53,2.53,0,0,1-1.94.81H434.07A2.59,2.59,0,0,1,432.18,80.85Z"/></svg>